P2
24 7
255
21 47 60 60 47 21 42 95 120 120 95 42 63 143 181 181 143 63 84 190 240 240 190 84 47 42 21 0 30 30 95 85 42 0 60 60 143 128 63 0 90 90 190 170 84 84 170 190 60 30 30 21 42 21 120 60 60 42 85 42 181 90 90 63 128 63 240 120 120 120 120 240 60 30 30 30 30 0 120 60 60 60 60 0 181 90 90 90 90 0 240 120 120 84 170 190 60 21 63 47 21 0 120 60 60 42 85 42 181 90 90 63 128 63 240 84 255 240 190 84 47 30 47 0 0 0 95 85 42 0 60 60 143 128 63 0 90 90 190 120 190 0 0 0 21 30 21 0 0 0 42 95 120 120 95 42 63 143 181 181 143 63 84 120 84 0 0 0 
